<svg id="Layer_1" data-name="Layer 1" xmlns="http://www.w3.org/2000/svg" viewBox="0 0 512 512"><title>microphone-outline</title><path d="M442.62,132.32V201.7h-29.4v67.06q0,53.14-33,95.69-32.76,42.31-84.34,55.46l-4.9,1v37.4h25.53a54.51,54.51,0,0,1,39,15.48Q371.94,489.56,373,512H143.41a55.86,55.86,0,0,1,17.54-38.18,55.08,55.08,0,0,1,38.95-15.48h21.41v-37.4l-5.16-1q-51.6-13.15-84.6-55.46-32.76-42.55-32.76-95.69V201.7H69.38V132.32H179V75.83q0-31.47,22.18-53.65Q223.63,0,254.84,0h2.32q31.21,0,53.4,22.18Q333,44.37,333,75.83v56.49Zm-66,36.63H333v99.82q0,31.21-22.44,53.4-22.19,22.19-53.4,22.18h-2.32q-31.21,0-53.65-22.18Q179,300,179,268.76V168.95H135.42v99.82q0,44.63,29.66,78.42,29.66,34,74,39.72a123.61,123.61,0,0,0,33.79,0q44.36-5.68,74-39.72,29.66-33.79,29.66-78.42Zm-161,99.82a39.19,39.19,0,0,0,39.21,39h2.32a38.75,38.75,0,0,0,38.95-39V75.83a37.58,37.58,0,0,0-11.35-27.6,37.7,37.7,0,0,0-27.6-11.61h-2.32a37.14,37.14,0,0,0-27.6,11.61,37.15,37.15,0,0,0-11.61,27.6Z"/></svg>